<?xml version="1.0" encoding="UTF-8"?>
<svg width="3546px" height="2650px" viewBox="0 0 3546 2650" version="1.1" xmlns="http://www.w3.org/2000/svg" xmlns:xlink="http://www.w3.org/1999/xlink">
    <!-- Generator: Sketch 46.2 (44496) - http://www.bohemiancoding.com/sketch -->
    <title>Group 2</title>
    <desc>Created with Sketch.</desc>
    <defs></defs>
    <g id="Page-1" stroke="none" stroke-width="1" fill="none" fill-rule="evenodd">
        <g id="Group-2" fill-rule="nonzero" fill="#EAEAEA">
            <g id="Group" transform="translate(0.000000, 1350.000000)">
                <g id="mg--logo-2" transform="translate(898.000000, 900.000000)">
                    <rect id="Rectangle" x="0" y="0" width="100" height="400"></rect>
                    <rect id="Rectangle-Copy" x="300" y="0" width="100" height="400"></rect>
                    <rect id="Rectangle-Copy-3" x="450" y="0" width="400" height="100"></rect>
                    <polygon id="Rectangle-Copy-4" points="450 300 794.244831 300 850 300 850 400 450 400"></polygon>
                    <rect id="Rectangle-Copy-2" x="150" y="0" width="100" height="200"></rect>
                    <rect id="Rectangle-Copy-6" x="750" y="200" width="100" height="200"></rect>
                    <rect id="Rectangle-Copy-5" x="650" y="150" width="200" height="100"></rect>
                </g>
                <g id="mg--logo-2-copy-3" transform="translate(425.000000, 200.000000) rotate(-180.000000) translate(-425.000000, -200.000000) ">
                    <rect id="Rectangle" x="0" y="0" width="100" height="400"></rect>
                    <rect id="Rectangle-Copy" x="300" y="0" width="100" height="400"></rect>
                    <rect id="Rectangle-Copy-3" x="450" y="0" width="400" height="100"></rect>
                    <polygon id="Rectangle-Copy-4" points="450 300 794.244831 300 850 300 850 400 450 400"></polygon>
                    <rect id="Rectangle-Copy-2" x="150" y="0" width="100" height="200"></rect>
                    <rect id="Rectangle-Copy-6" x="750" y="200" width="100" height="200"></rect>
                    <rect id="Rectangle-Copy-5" x="650" y="150" width="200" height="100"></rect>
                </g>
                <g id="mg--logo-2-copy" transform="translate(1548.000000, 425.000000) rotate(-270.000000) translate(-1548.000000, -425.000000) translate(1123.000000, 225.000000)">
                    <rect id="Rectangle" x="0" y="0" width="100" height="400"></rect>
                    <rect id="Rectangle-Copy" x="300" y="0" width="100" height="400"></rect>
                    <rect id="Rectangle-Copy-3" x="450" y="0" width="400" height="100"></rect>
                    <polygon id="Rectangle-Copy-4" points="450 300 794.244831 300 850 300 850 400 450 400"></polygon>
                    <rect id="Rectangle-Copy-2" x="150" y="0" width="100" height="200"></rect>
                    <rect id="Rectangle-Copy-6" x="750" y="200" width="100" height="200"></rect>
                    <rect id="Rectangle-Copy-5" x="650" y="150" width="200" height="100"></rect>
                </g>
                <g id="mg--logo-2-copy-5" transform="translate(200.000000, 875.000000) rotate(-270.000000) translate(-200.000000, -875.000000) translate(-225.000000, 675.000000)">
                    <rect id="Rectangle" x="0" y="0" width="100" height="400"></rect>
                    <rect id="Rectangle-Copy" x="300" y="0" width="100" height="400"></rect>
                    <rect id="Rectangle-Copy-3" x="450" y="0" width="400" height="100"></rect>
                    <polygon id="Rectangle-Copy-4" points="450 300 794.244831 300 850 300 850 400 450 400"></polygon>
                    <rect id="Rectangle-Copy-2" x="150" y="0" width="100" height="200"></rect>
                    <rect id="Rectangle-Copy-6" x="750" y="200" width="100" height="200"></rect>
                    <rect id="Rectangle-Copy-5" x="650" y="150" width="200" height="100"></rect>
                </g>
                <g id="mg--logo-2-copy-2" transform="translate(1098.000000, 425.000000) rotate(-90.000000) translate(-1098.000000, -425.000000) translate(673.000000, 225.000000)">
                    <rect id="Rectangle" x="0" y="0" width="100" height="400"></rect>
                    <rect id="Rectangle-Copy" x="300" y="0" width="100" height="400"></rect>
                    <rect id="Rectangle-Copy-3" x="450" y="0" width="400" height="100"></rect>
                    <polygon id="Rectangle-Copy-4" points="450 300 794.244831 300 850 300 850 400 450 400"></polygon>
                    <rect id="Rectangle-Copy-2" x="150" y="0" width="100" height="200"></rect>
                    <rect id="Rectangle-Copy-6" x="750" y="200" width="100" height="200"></rect>
                    <rect id="Rectangle-Copy-5" x="650" y="150" width="200" height="100"></rect>
                </g>
                <g id="mg--logo-2-copy-4" transform="translate(650.000000, 875.000000) rotate(-90.000000) translate(-650.000000, -875.000000) translate(225.000000, 675.000000)">
                    <rect id="Rectangle" x="0" y="0" width="100" height="400"></rect>
                    <rect id="Rectangle-Copy" x="300" y="0" width="100" height="400"></rect>
                    <rect id="Rectangle-Copy-3" x="450" y="0" width="400" height="100"></rect>
                    <polygon id="Rectangle-Copy-4" points="450 300 794.244831 300 850 300 850 400 450 400"></polygon>
                    <rect id="Rectangle-Copy-2" x="150" y="0" width="100" height="200"></rect>
                    <rect id="Rectangle-Copy-6" x="750" y="200" width="100" height="200"></rect>
                    <rect id="Rectangle-Copy-5" x="650" y="150" width="200" height="100"></rect>
                </g>
            </g>
            <g id="Group-Copy" transform="translate(1798.000000, 1350.000000)">
                <g id="mg--logo-2-copy-6" transform="translate(898.000000, 900.000000)">
                    <rect id="Rectangle" x="0" y="0" width="100" height="400"></rect>
                    <rect id="Rectangle-Copy" x="300" y="0" width="100" height="400"></rect>
                    <rect id="Rectangle-Copy-3" x="450" y="0" width="400" height="100"></rect>
                    <polygon id="Rectangle-Copy-4" points="450 300 794.244831 300 850 300 850 400 450 400"></polygon>
                    <rect id="Rectangle-Copy-2" x="150" y="0" width="100" height="200"></rect>
                    <rect id="Rectangle-Copy-6" x="750" y="200" width="100" height="200"></rect>
                    <rect id="Rectangle-Copy-5" x="650" y="150" width="200" height="100"></rect>
                </g>
                <g id="mg--logo-2-copy-7" transform="translate(425.000000, 200.000000) rotate(-180.000000) translate(-425.000000, -200.000000) ">
                    <rect id="Rectangle" x="0" y="0" width="100" height="400"></rect>
                    <rect id="Rectangle-Copy" x="300" y="0" width="100" height="400"></rect>
                    <rect id="Rectangle-Copy-3" x="450" y="0" width="400" height="100"></rect>
                    <polygon id="Rectangle-Copy-4" points="450 300 794.244831 300 850 300 850 400 450 400"></polygon>
                    <rect id="Rectangle-Copy-2" x="150" y="0" width="100" height="200"></rect>
                    <rect id="Rectangle-Copy-6" x="750" y="200" width="100" height="200"></rect>
                    <rect id="Rectangle-Copy-5" x="650" y="150" width="200" height="100"></rect>
                </g>
                <g id="mg--logo-2-copy-8" transform="translate(1548.000000, 425.000000) rotate(-270.000000) translate(-1548.000000, -425.000000) translate(1123.000000, 225.000000)">
                    <rect id="Rectangle" x="0" y="0" width="100" height="400"></rect>
                    <rect id="Rectangle-Copy" x="300" y="0" width="100" height="400"></rect>
                    <rect id="Rectangle-Copy-3" x="450" y="0" width="400" height="100"></rect>
                    <polygon id="Rectangle-Copy-4" points="450 300 794.244831 300 850 300 850 400 450 400"></polygon>
                    <rect id="Rectangle-Copy-2" x="150" y="0" width="100" height="200"></rect>
                    <rect id="Rectangle-Copy-6" x="750" y="200" width="100" height="200"></rect>
                    <rect id="Rectangle-Copy-5" x="650" y="150" width="200" height="100"></rect>
                </g>
                <g id="mg--logo-2-copy-9" transform="translate(200.000000, 875.000000) rotate(-270.000000) translate(-200.000000, -875.000000) translate(-225.000000, 675.000000)">
                    <rect id="Rectangle" x="0" y="0" width="100" height="400"></rect>
                    <rect id="Rectangle-Copy" x="300" y="0" width="100" height="400"></rect>
                    <rect id="Rectangle-Copy-3" x="450" y="0" width="400" height="100"></rect>
                    <polygon id="Rectangle-Copy-4" points="450 300 794.244831 300 850 300 850 400 450 400"></polygon>
                    <rect id="Rectangle-Copy-2" x="150" y="0" width="100" height="200"></rect>
                    <rect id="Rectangle-Copy-6" x="750" y="200" width="100" height="200"></rect>
                    <rect id="Rectangle-Copy-5" x="650" y="150" width="200" height="100"></rect>
                </g>
                <g id="mg--logo-2-copy-10" transform="translate(1098.000000, 425.000000) rotate(-90.000000) translate(-1098.000000, -425.000000) translate(673.000000, 225.000000)">
                    <rect id="Rectangle" x="0" y="0" width="100" height="400"></rect>
                    <rect id="Rectangle-Copy" x="300" y="0" width="100" height="400"></rect>
                    <rect id="Rectangle-Copy-3" x="450" y="0" width="400" height="100"></rect>
                    <polygon id="Rectangle-Copy-4" points="450 300 794.244831 300 850 300 850 400 450 400"></polygon>
                    <rect id="Rectangle-Copy-2" x="150" y="0" width="100" height="200"></rect>
                    <rect id="Rectangle-Copy-6" x="750" y="200" width="100" height="200"></rect>
                    <rect id="Rectangle-Copy-5" x="650" y="150" width="200" height="100"></rect>
                </g>
                <g id="mg--logo-2-copy-11" transform="translate(650.000000, 875.000000) rotate(-90.000000) translate(-650.000000, -875.000000) translate(225.000000, 675.000000)">
                    <rect id="Rectangle" x="0" y="0" width="100" height="400"></rect>
                    <rect id="Rectangle-Copy" x="300" y="0" width="100" height="400"></rect>
                    <rect id="Rectangle-Copy-3" x="450" y="0" width="400" height="100"></rect>
                    <polygon id="Rectangle-Copy-4" points="450 300 794.244831 300 850 300 850 400 450 400"></polygon>
                    <rect id="Rectangle-Copy-2" x="150" y="0" width="100" height="200"></rect>
                    <rect id="Rectangle-Copy-6" x="750" y="200" width="100" height="200"></rect>
                    <rect id="Rectangle-Copy-5" x="650" y="150" width="200" height="100"></rect>
                </g>
            </g>
            <g id="Group-Copy-2" transform="translate(1798.000000, 0.000000)">
                <g id="mg--logo-2-copy-12" transform="translate(898.000000, 900.000000)">
                    <rect id="Rectangle" x="0" y="0" width="100" height="400"></rect>
                    <rect id="Rectangle-Copy" x="300" y="0" width="100" height="400"></rect>
                    <rect id="Rectangle-Copy-3" x="450" y="0" width="400" height="100"></rect>
                    <polygon id="Rectangle-Copy-4" points="450 300 794.244831 300 850 300 850 400 450 400"></polygon>
                    <rect id="Rectangle-Copy-2" x="150" y="0" width="100" height="200"></rect>
                    <rect id="Rectangle-Copy-6" x="750" y="200" width="100" height="200"></rect>
                    <rect id="Rectangle-Copy-5" x="650" y="150" width="200" height="100"></rect>
                </g>
                <g id="mg--logo-2-copy-13" transform="translate(425.000000, 200.000000) rotate(-180.000000) translate(-425.000000, -200.000000) ">
                    <rect id="Rectangle" x="0" y="0" width="100" height="400"></rect>
                    <rect id="Rectangle-Copy" x="300" y="0" width="100" height="400"></rect>
                    <rect id="Rectangle-Copy-3" x="450" y="0" width="400" height="100"></rect>
                    <polygon id="Rectangle-Copy-4" points="450 300 794.244831 300 850 300 850 400 450 400"></polygon>
                    <rect id="Rectangle-Copy-2" x="150" y="0" width="100" height="200"></rect>
                    <rect id="Rectangle-Copy-6" x="750" y="200" width="100" height="200"></rect>
                    <rect id="Rectangle-Copy-5" x="650" y="150" width="200" height="100"></rect>
                </g>
                <g id="mg--logo-2-copy-14" transform="translate(1548.000000, 425.000000) rotate(-270.000000) translate(-1548.000000, -425.000000) translate(1123.000000, 225.000000)">
                    <rect id="Rectangle" x="0" y="0" width="100" height="400"></rect>
                    <rect id="Rectangle-Copy" x="300" y="0" width="100" height="400"></rect>
                    <rect id="Rectangle-Copy-3" x="450" y="0" width="400" height="100"></rect>
                    <polygon id="Rectangle-Copy-4" points="450 300 794.244831 300 850 300 850 400 450 400"></polygon>
                    <rect id="Rectangle-Copy-2" x="150" y="0" width="100" height="200"></rect>
                    <rect id="Rectangle-Copy-6" x="750" y="200" width="100" height="200"></rect>
                    <rect id="Rectangle-Copy-5" x="650" y="150" width="200" height="100"></rect>
                </g>
                <g id="mg--logo-2-copy-15" transform="translate(200.000000, 875.000000) rotate(-270.000000) translate(-200.000000, -875.000000) translate(-225.000000, 675.000000)">
                    <rect id="Rectangle" x="0" y="0" width="100" height="400"></rect>
                    <rect id="Rectangle-Copy" x="300" y="0" width="100" height="400"></rect>
                    <rect id="Rectangle-Copy-3" x="450" y="0" width="400" height="100"></rect>
                    <polygon id="Rectangle-Copy-4" points="450 300 794.244831 300 850 300 850 400 450 400"></polygon>
                    <rect id="Rectangle-Copy-2" x="150" y="0" width="100" height="200"></rect>
                    <rect id="Rectangle-Copy-6" x="750" y="200" width="100" height="200"></rect>
                    <rect id="Rectangle-Copy-5" x="650" y="150" width="200" height="100"></rect>
                </g>
                <g id="mg--logo-2-copy-16" transform="translate(1098.000000, 425.000000) rotate(-90.000000) translate(-1098.000000, -425.000000) translate(673.000000, 225.000000)">
                    <rect id="Rectangle" x="0" y="0" width="100" height="400"></rect>
                    <rect id="Rectangle-Copy" x="300" y="0" width="100" height="400"></rect>
                    <rect id="Rectangle-Copy-3" x="450" y="0" width="400" height="100"></rect>
                    <polygon id="Rectangle-Copy-4" points="450 300 794.244831 300 850 300 850 400 450 400"></polygon>
                    <rect id="Rectangle-Copy-2" x="150" y="0" width="100" height="200"></rect>
                    <rect id="Rectangle-Copy-6" x="750" y="200" width="100" height="200"></rect>
                    <rect id="Rectangle-Copy-5" x="650" y="150" width="200" height="100"></rect>
                </g>
                <g id="mg--logo-2-copy-17" transform="translate(650.000000, 875.000000) rotate(-90.000000) translate(-650.000000, -875.000000) translate(225.000000, 675.000000)">
                    <rect id="Rectangle" x="0" y="0" width="100" height="400"></rect>
                    <rect id="Rectangle-Copy" x="300" y="0" width="100" height="400"></rect>
                    <rect id="Rectangle-Copy-3" x="450" y="0" width="400" height="100"></rect>
                    <polygon id="Rectangle-Copy-4" points="450 300 794.244831 300 850 300 850 400 450 400"></polygon>
                    <rect id="Rectangle-Copy-2" x="150" y="0" width="100" height="200"></rect>
                    <rect id="Rectangle-Copy-6" x="750" y="200" width="100" height="200"></rect>
                    <rect id="Rectangle-Copy-5" x="650" y="150" width="200" height="100"></rect>
                </g>
            </g>
            <g id="Group-Copy-3">
                <g id="mg--logo-2-copy-18" transform="translate(898.000000, 900.000000)">
                    <rect id="Rectangle" x="0" y="0" width="100" height="400"></rect>
                    <rect id="Rectangle-Copy" x="300" y="0" width="100" height="400"></rect>
                    <rect id="Rectangle-Copy-3" x="450" y="0" width="400" height="100"></rect>
                    <polygon id="Rectangle-Copy-4" points="450 300 794.244831 300 850 300 850 400 450 400"></polygon>
                    <rect id="Rectangle-Copy-2" x="150" y="0" width="100" height="200"></rect>
                    <rect id="Rectangle-Copy-6" x="750" y="200" width="100" height="200"></rect>
                    <rect id="Rectangle-Copy-5" x="650" y="150" width="200" height="100"></rect>
                </g>
                <g id="mg--logo-2-copy-19" transform="translate(425.000000, 200.000000) rotate(-180.000000) translate(-425.000000, -200.000000) ">
                    <rect id="Rectangle" x="0" y="0" width="100" height="400"></rect>
                    <rect id="Rectangle-Copy" x="300" y="0" width="100" height="400"></rect>
                    <rect id="Rectangle-Copy-3" x="450" y="0" width="400" height="100"></rect>
                    <polygon id="Rectangle-Copy-4" points="450 300 794.244831 300 850 300 850 400 450 400"></polygon>
                    <rect id="Rectangle-Copy-2" x="150" y="0" width="100" height="200"></rect>
                    <rect id="Rectangle-Copy-6" x="750" y="200" width="100" height="200"></rect>
                    <rect id="Rectangle-Copy-5" x="650" y="150" width="200" height="100"></rect>
                </g>
                <g id="mg--logo-2-copy-20" transform="translate(1548.000000, 425.000000) rotate(-270.000000) translate(-1548.000000, -425.000000) translate(1123.000000, 225.000000)">
                    <rect id="Rectangle" x="0" y="0" width="100" height="400"></rect>
                    <rect id="Rectangle-Copy" x="300" y="0" width="100" height="400"></rect>
                    <rect id="Rectangle-Copy-3" x="450" y="0" width="400" height="100"></rect>
                    <polygon id="Rectangle-Copy-4" points="450 300 794.244831 300 850 300 850 400 450 400"></polygon>
                    <rect id="Rectangle-Copy-2" x="150" y="0" width="100" height="200"></rect>
                    <rect id="Rectangle-Copy-6" x="750" y="200" width="100" height="200"></rect>
                    <rect id="Rectangle-Copy-5" x="650" y="150" width="200" height="100"></rect>
                </g>
                <g id="mg--logo-2-copy-21" transform="translate(200.000000, 875.000000) rotate(-270.000000) translate(-200.000000, -875.000000) translate(-225.000000, 675.000000)">
                    <rect id="Rectangle" x="0" y="0" width="100" height="400"></rect>
                    <rect id="Rectangle-Copy" x="300" y="0" width="100" height="400"></rect>
                    <rect id="Rectangle-Copy-3" x="450" y="0" width="400" height="100"></rect>
                    <polygon id="Rectangle-Copy-4" points="450 300 794.244831 300 850 300 850 400 450 400"></polygon>
                    <rect id="Rectangle-Copy-2" x="150" y="0" width="100" height="200"></rect>
                    <rect id="Rectangle-Copy-6" x="750" y="200" width="100" height="200"></rect>
                    <rect id="Rectangle-Copy-5" x="650" y="150" width="200" height="100"></rect>
                </g>
                <g id="mg--logo-2-copy-22" transform="translate(1098.000000, 425.000000) rotate(-90.000000) translate(-1098.000000, -425.000000) translate(673.000000, 225.000000)">
                    <rect id="Rectangle" x="0" y="0" width="100" height="400"></rect>
                    <rect id="Rectangle-Copy" x="300" y="0" width="100" height="400"></rect>
                    <rect id="Rectangle-Copy-3" x="450" y="0" width="400" height="100"></rect>
                    <polygon id="Rectangle-Copy-4" points="450 300 794.244831 300 850 300 850 400 450 400"></polygon>
                    <rect id="Rectangle-Copy-2" x="150" y="0" width="100" height="200"></rect>
                    <rect id="Rectangle-Copy-6" x="750" y="200" width="100" height="200"></rect>
                    <rect id="Rectangle-Copy-5" x="650" y="150" width="200" height="100"></rect>
                </g>
                <g id="mg--logo-2-copy-23" transform="translate(650.000000, 875.000000) rotate(-90.000000) translate(-650.000000, -875.000000) translate(225.000000, 675.000000)">
                    <rect id="Rectangle" x="0" y="0" width="100" height="400"></rect>
                    <rect id="Rectangle-Copy" x="300" y="0" width="100" height="400"></rect>
                    <rect id="Rectangle-Copy-3" x="450" y="0" width="400" height="100"></rect>
                    <polygon id="Rectangle-Copy-4" points="450 300 794.244831 300 850 300 850 400 450 400"></polygon>
                    <rect id="Rectangle-Copy-2" x="150" y="0" width="100" height="200"></rect>
                    <rect id="Rectangle-Copy-6" x="750" y="200" width="100" height="200"></rect>
                    <rect id="Rectangle-Copy-5" x="650" y="150" width="200" height="100"></rect>
                </g>
            </g>
        </g>
    </g>
</svg>