<?xml version="1.0" encoding="UTF-8"?>
<svg width="320px" height="203px" viewBox="0 0 320 203" version="1.1" xmlns="http://www.w3.org/2000/svg" xmlns:xlink="http://www.w3.org/1999/xlink">
    <!-- Generator: Sketch 54.1 (76490) - https://sketchapp.com -->
    <title>Path</title>
    <desc>Created with Sketch.</desc>
    <g id="Page-1" stroke="none" stroke-width="1" fill="none" fill-rule="evenodd">
        <g id="f" transform="translate(-31.000000, -85.000000)" fill="#242A2E" fill-rule="nonzero">
            <g id="Asset-1" transform="translate(0.000000, 54.000000)">
                <path d="M350.94071,171.777453 C348.330689,184.367432 345.792067,196.584551 343.253445,208.80167 C342.76952,211.126096 342.17453,213.434656 341.817537,215.774948 C341.588223,217.482709 340.615319,219.0016 339.159916,219.924008 C329.980595,226.247057 319.528722,230.484668 308.537787,232.339457 C299.294081,234.041711 289.833719,234.21591 280.533612,232.855115 C262.501461,230.197495 249.316493,217.528184 245.936952,199.66263 C244.270981,190.856785 244.881837,182.162004 246.571608,173.48309 C250.117745,155.236743 253.790814,136.990397 257.217954,118.648852 C258.637996,111.064718 259.685177,103.401253 260.637161,95.7457203 C260.883015,93.3138237 260.722151,90.8579613 260.161169,88.4789144 C259.36785,84.5916493 256.369102,83.1557411 252.632568,84.5123173 C249.411691,85.7022965 247.404593,88.2805846 245.65929,91.0254697 C240.954906,98.4192067 238.051357,106.590397 236.036326,115.023382 C232.910647,128.121086 230.205428,141.321921 227.182881,154.451357 C223.700209,169.572025 220.288935,184.716493 216.417537,199.741962 C213.782712,209.731585 209.638839,219.26062 204.129019,228 C203.465093,229.294522 202.088916,230.06393 200.638413,229.951566 C179.551983,229.896033 158.465553,229.951566 137.37119,229.9119 C136.577871,229.9119 135.83215,229.840501 134.800835,229.792902 C135.475157,226.008768 136.101879,222.454697 136.752401,218.900626 C140.126653,200.326374 143.506193,181.749478 146.891023,163.169937 C150.064301,145.899374 153.31691,128.644676 156.410856,111.358246 C157.402505,105.80501 158.076827,100.124843 158.529019,94.4764092 C158.636357,92.040906 158.303107,89.6060305 157.545303,87.2889353 C156.751983,84.5678497 154.324426,83.5206681 151.539875,84.1156576 C148.152401,84.908977 145.907307,87.2096033 143.995407,89.8751566 C139.465553,96.2217119 136.720668,103.361587 134.848434,110.834656 C132.198747,121.40167 130.009186,132.079749 127.708559,142.718163 C123.837161,160.464718 120.195825,178.250939 116.102296,195.941962 C113.386083,207.277856 108.878929,218.107879 102.750731,228.0238 C102.128145,229.272901 100.810281,230.01969 99.4187891,229.9119 C77.4755741,229.853723 55.5270703,229.840501 33.5732777,229.872234 C32.9386221,229.872234 32.3118998,229.808768 31.4471816,229.769102 C32.5736952,224.620459 33.6605428,219.733612 34.7077244,214.846764 C40.3773138,188.212387 46.0469033,161.551566 51.7164927,134.864301 C53.1048017,128.279749 54.3741127,121.663466 55.6037578,115.031315 C56.9286013,107.931106 53.1127349,103.131524 45.8935282,103.131524 C42.5615866,103.131524 39.2217119,103.853445 35.8897704,104.265971 C35.1995825,104.353236 34.5173278,104.567432 33.4701461,104.797495 C34.2,101.116493 34.8346555,97.7686848 35.5248434,94.4367432 C37.8492693,83.2509395 40.2371608,72.0810021 42.4663883,60.8793319 C42.6411956,59.1754373 43.910661,57.7867582 45.5920668,57.4601253 C60.6651357,52.874739 75.674739,47.9402923 90.8112735,43.6087683 C103.931621,39.9039529 117.341417,37.3138162 130.897704,35.8659708 C135.28476,35.3899791 139.711482,35.302714 144.669729,35.0012526 L134.229645,85.0755741 C136.292276,85.9244259 137.236326,85.1311065 138.148643,83.6079332 C146.954489,68.7887265 157.370772,55.2864301 170.833403,44.3624217 C178.139875,38.4363257 186.112735,33.5494781 195.545303,31.9787056 C206.453445,30.154071 217.083925,31.1853862 226.691023,37.222547 C234.822547,42.37119 239.193737,50.217119 241.232568,59.4989562 C242.544647,65.3119846 242.943441,71.2938895 242.414614,77.2296451 C242.359081,77.7770355 242.414614,78.3402923 242.414614,79.4588727 C243.096868,78.5862213 243.469729,78.1736952 243.77119,77.7135699 C250.911065,66.9958246 258.844259,56.9444676 268.411691,48.3131524 C276.797077,40.7607516 285.904384,34.1841336 297.256785,32.1215031 C309.394572,29.9002088 321.159499,31.177453 331.401253,38.8726514 C338.303132,44.0688935 341.658873,51.4705637 343.443841,59.6893528 C345.617537,69.6931106 344.689353,79.6572025 342.856785,89.5974948 C338.390397,113.904802 332.670564,137.926514 326.657203,161.876827 L326.466806,162.670146 C324.618372,170.714405 328.846764,175.807516 337.049687,175.006263 C341.016284,174.617537 344.895616,173.332359 348.814614,172.435908 C349.441336,172.301044 350.044259,172.063048 350.94071,171.777453 Z" id="Path"></path>
            </g>
        </g>
    </g>
</svg>