<?xml version="1.0" encoding="UTF-8"?>
<svg width="20px" height="20px" viewBox="0 0 20 20" version="1.1" xmlns="http://www.w3.org/2000/svg" xmlns:xlink="http://www.w3.org/1999/xlink">
    <!-- Generator: Sketch 55.2 (78181) - https://sketchapp.com -->
    <title>nights_stay-24px</title>
    <desc>Created with Sketch.</desc>
    <g id="Page-1" stroke="none" stroke-width="1" fill="none" fill-rule="evenodd">
        <g id="nights_stay-24px" transform="translate(-1.000000, -2.000000)">
            <rect id="Rectangle" x="0" y="0" width="24" height="24"></rect>
            <g id="Group" transform="translate(1.000000, 2.000000)" fill="#000000" fill-rule="nonzero">
                <path d="M10.1,10.08 C7.77,5.57 9.6,1.6 10.63,0.01 C5.27,0.2 0.98,4.59036854 0.98,10 C0.98,10.1425488 0.777657454,11.4087405 1.38739096,13.2801777 C1.99712446,15.1516149 2.19729982,15.6148517 3.34944152,16.7273403 C4.12775564,17.5195011 5.12960136,18.2374972 6.35497866,18.8813285 C8.19304461,19.8470755 9.91,20.01 10.99,20.01 C14.49,20.01 17.57,18.21 19.36,15.49 C17,15.72 12.38,14.52 10.1,10.08 Z" id="Path"></path>
            </g>
        </g>
    </g>
</svg>